<mxfile host="app.diagrams.net" modified="2021-06-05T17:21:58.780Z" agent="5.0 (Windows NT 10.0; Win64; x64) AppleWebKit/537.36 (KHTML, like Gecko) Chrome/91.0.4472.77 Safari/537.36" etag="fYosbi3l1QQezFAjf37U" version="14.7.4" type="github">
  <diagram name="Page-1" id="dd472eb7-4b8b-5cd9-a60b-b15522922e76">
    <mxGraphModel dx="716" dy="1227" grid="1" gridSize="10" guides="1" tooltips="1" connect="1" arrows="1" fold="1" page="1" pageScale="1" pageWidth="1100" pageHeight="850" background="none" math="0" shadow="0">
      <root>
        <mxCell id="0" />
        <mxCell id="1" parent="0" />
        <mxCell id="-GhSaxj0Hqy-70uD3YuT-39" value="" style="shape=flexArrow;endArrow=classic;html=1;gradientColor=#7ea6e0;fillColor=#dae8fc;strokeColor=#6c8ebf;exitX=0.5;exitY=0;exitDx=0;exitDy=0;" edge="1" parent="1">
          <mxGeometry width="50" height="50" relative="1" as="geometry">
            <mxPoint x="359.66000000000014" y="130.0000000000001" as="sourcePoint" />
            <mxPoint x="359.66" y="80" as="targetPoint" />
          </mxGeometry>
        </mxCell>
        <mxCell id="-GhSaxj0Hqy-70uD3YuT-38" value="" style="shape=flexArrow;endArrow=classic;html=1;gradientColor=#7ea6e0;fillColor=#dae8fc;strokeColor=#6c8ebf;exitX=0.5;exitY=0;exitDx=0;exitDy=0;entryX=0;entryY=1;entryDx=0;entryDy=0;" edge="1" parent="1" source="45236fa5f4b8e91a-4" target="45236fa5f4b8e91a-5">
          <mxGeometry width="50" height="50" relative="1" as="geometry">
            <mxPoint x="305.44000000000005" y="289.9999999999999" as="sourcePoint" />
            <mxPoint x="280" y="253.2799999999999" as="targetPoint" />
          </mxGeometry>
        </mxCell>
        <mxCell id="-GhSaxj0Hqy-70uD3YuT-36" value="" style="shape=flexArrow;endArrow=classic;html=1;gradientColor=#7ea6e0;fillColor=#dae8fc;strokeColor=#6c8ebf;" edge="1" parent="1">
          <mxGeometry width="50" height="50" relative="1" as="geometry">
            <mxPoint x="448" y="640" as="sourcePoint" />
            <mxPoint x="410" y="610" as="targetPoint" />
          </mxGeometry>
        </mxCell>
        <mxCell id="-GhSaxj0Hqy-70uD3YuT-35" value="" style="shape=flexArrow;endArrow=classic;html=1;gradientColor=#7ea6e0;fillColor=#dae8fc;strokeColor=#6c8ebf;entryX=0.988;entryY=0.435;entryDx=0;entryDy=0;entryPerimeter=0;exitX=0.102;exitY=0.791;exitDx=0;exitDy=0;exitPerimeter=0;" edge="1" parent="1" source="45236fa5f4b8e91a-7" target="45236fa5f4b8e91a-2">
          <mxGeometry width="50" height="50" relative="1" as="geometry">
            <mxPoint x="630" y="600" as="sourcePoint" />
            <mxPoint x="766.5685424949238" y="503.43145750507585" as="targetPoint" />
          </mxGeometry>
        </mxCell>
        <mxCell id="-GhSaxj0Hqy-70uD3YuT-33" value="" style="shape=flexArrow;endArrow=classic;html=1;exitX=1.002;exitY=0.575;exitDx=0;exitDy=0;exitPerimeter=0;gradientColor=#7ea6e0;fillColor=#dae8fc;strokeColor=#6c8ebf;entryX=0.375;entryY=-0.005;entryDx=0;entryDy=0;entryPerimeter=0;" edge="1" parent="1" target="45236fa5f4b8e91a-3">
          <mxGeometry width="50" height="50" relative="1" as="geometry">
            <mxPoint x="760" y="264.48" as="sourcePoint" />
            <mxPoint x="789.3015604084687" y="289.99720250889993" as="targetPoint" />
          </mxGeometry>
        </mxCell>
        <mxCell id="-GhSaxj0Hqy-70uD3YuT-34" value="" style="shape=flexArrow;endArrow=classic;html=1;exitX=1.002;exitY=0.575;exitDx=0;exitDy=0;exitPerimeter=0;gradientColor=#7ea6e0;fillColor=#dae8fc;strokeColor=#6c8ebf;entryX=1;entryY=0;entryDx=0;entryDy=0;" edge="1" parent="1" target="45236fa5f4b8e91a-7">
          <mxGeometry width="50" height="50" relative="1" as="geometry">
            <mxPoint x="779.88" y="460" as="sourcePoint" />
            <mxPoint x="800.1199999999998" y="494.72" as="targetPoint" />
          </mxGeometry>
        </mxCell>
        <mxCell id="-GhSaxj0Hqy-70uD3YuT-32" value="" style="shape=flexArrow;endArrow=classic;html=1;exitX=1.002;exitY=0.575;exitDx=0;exitDy=0;exitPerimeter=0;gradientColor=#7ea6e0;fillColor=#dae8fc;strokeColor=#6c8ebf;" edge="1" parent="1" source="45236fa5f4b8e91a-1" target="45236fa5f4b8e91a-6">
          <mxGeometry width="50" height="50" relative="1" as="geometry">
            <mxPoint x="530" y="290" as="sourcePoint" />
            <mxPoint x="580" y="240" as="targetPoint" />
          </mxGeometry>
        </mxCell>
        <mxCell id="374e34682ed331ee-1" value="트럭 - [7kg, 4kg, 5kg, 6kg]&lt;br&gt;오른쪽이 입구/왼쪽이 출구" style="ellipse;whiteSpace=wrap;html=1;rounded=0;shadow=0;dashed=0;comic=0;fontFamily=Verdana;fontSize=22;fontColor=#0069D1;fillColor=#f5f5f5;strokeColor=#666666;" parent="1" vertex="1">
          <mxGeometry x="330" y="180" width="400" height="400" as="geometry" />
        </mxCell>
        <mxCell id="45236fa5f4b8e91a-1" value="0초 후&lt;br&gt;&lt;br&gt;&lt;br&gt;" style="ellipse;whiteSpace=wrap;html=1;rounded=0;shadow=0;dashed=0;comic=0;fontFamily=Verdana;fontSize=22;fontColor=#0069D1;fillColor=#f5f5f5;strokeColor=#666666;" parent="1" vertex="1">
          <mxGeometry x="450" y="40" width="160" height="160" as="geometry" />
        </mxCell>
        <mxCell id="45236fa5f4b8e91a-2" value="4초 후&lt;br&gt;&lt;br&gt;&lt;br&gt;" style="ellipse;whiteSpace=wrap;html=1;rounded=0;shadow=0;dashed=0;comic=0;fontFamily=Verdana;fontSize=22;fontColor=#0069D1;fillColor=#f5f5f5;strokeColor=#666666;" parent="1" vertex="1">
          <mxGeometry x="450" y="560" width="160" height="160" as="geometry" />
        </mxCell>
        <mxCell id="45236fa5f4b8e91a-3" value="2초 후&lt;br&gt;&lt;br&gt;&lt;br&gt;" style="ellipse;whiteSpace=wrap;html=1;rounded=0;shadow=0;dashed=0;comic=0;fontFamily=Verdana;fontSize=22;fontColor=#0069D1;fillColor=#f5f5f5;strokeColor=#666666;" parent="1" vertex="1">
          <mxGeometry x="710" y="300" width="160" height="160" as="geometry" />
        </mxCell>
        <mxCell id="45236fa5f4b8e91a-4" value="6초 후&lt;br&gt;&lt;br&gt;&lt;br&gt;" style="ellipse;whiteSpace=wrap;html=1;rounded=0;shadow=0;dashed=0;comic=0;fontFamily=Verdana;fontSize=22;fontColor=#0069D1;fillColor=#f5f5f5;strokeColor=#666666;" parent="1" vertex="1">
          <mxGeometry x="190" y="300" width="160" height="160" as="geometry" />
        </mxCell>
        <mxCell id="45236fa5f4b8e91a-5" value="7초 후&lt;br&gt;&lt;br&gt;&lt;br&gt;" style="ellipse;whiteSpace=wrap;html=1;rounded=0;shadow=0;dashed=0;comic=0;fontFamily=Verdana;fontSize=22;fontColor=#0069D1;fillColor=#f5f5f5;strokeColor=#666666;" parent="1" vertex="1">
          <mxGeometry x="280" y="130" width="160" height="160" as="geometry" />
        </mxCell>
        <mxCell id="45236fa5f4b8e91a-6" value="1초 후&lt;br&gt;&lt;br&gt;&lt;br&gt;" style="ellipse;whiteSpace=wrap;html=1;rounded=0;shadow=0;dashed=0;comic=0;fontFamily=Verdana;fontSize=22;fontColor=#0069D1;fillColor=#f5f5f5;strokeColor=#666666;" parent="1" vertex="1">
          <mxGeometry x="620" y="130" width="160" height="160" as="geometry" />
        </mxCell>
        <mxCell id="45236fa5f4b8e91a-7" value="3초 후&lt;br&gt;&lt;br&gt;&lt;br&gt;" style="ellipse;whiteSpace=wrap;html=1;rounded=0;shadow=0;dashed=0;comic=0;fontFamily=Verdana;fontSize=22;fontColor=#0069D1;fillColor=#f5f5f5;strokeColor=#666666;" parent="1" vertex="1">
          <mxGeometry x="620" y="470" width="160" height="160" as="geometry" />
        </mxCell>
        <mxCell id="45236fa5f4b8e91a-8" value="5초 후&lt;br&gt;&lt;br&gt;&lt;br&gt;" style="ellipse;whiteSpace=wrap;html=1;rounded=0;shadow=0;dashed=0;comic=0;fontFamily=Verdana;fontSize=22;fontColor=#0069D1;fillColor=#f5f5f5;strokeColor=#666666;" parent="1" vertex="1">
          <mxGeometry x="280" y="470" width="160" height="160" as="geometry" />
        </mxCell>
        <mxCell id="-GhSaxj0Hqy-70uD3YuT-10" value="" style="group" vertex="1" connectable="0" parent="1">
          <mxGeometry x="650" y="200" width="100" height="50" as="geometry" />
        </mxCell>
        <mxCell id="-GhSaxj0Hqy-70uD3YuT-1" value="&lt;font style=&quot;font-size: 24px&quot;&gt;&lt;b&gt;&amp;nbsp; &amp;nbsp; &amp;nbsp; &amp;nbsp; 7&lt;/b&gt;&lt;/font&gt;" style="rounded=0;whiteSpace=wrap;html=1;" vertex="1" parent="-GhSaxj0Hqy-70uD3YuT-10">
          <mxGeometry width="100" height="50" as="geometry" />
        </mxCell>
        <mxCell id="-GhSaxj0Hqy-70uD3YuT-6" value="" style="endArrow=none;html=1;entryX=0.5;entryY=0;entryDx=0;entryDy=0;exitX=0.5;exitY=1;exitDx=0;exitDy=0;" edge="1" parent="-GhSaxj0Hqy-70uD3YuT-10" source="-GhSaxj0Hqy-70uD3YuT-1" target="-GhSaxj0Hqy-70uD3YuT-1">
          <mxGeometry width="50" height="50" relative="1" as="geometry">
            <mxPoint x="-448.33333333333337" y="190" as="sourcePoint" />
            <mxPoint x="-406.6666666666667" y="148.33333333333334" as="targetPoint" />
          </mxGeometry>
        </mxCell>
        <mxCell id="-GhSaxj0Hqy-70uD3YuT-11" value="" style="group" vertex="1" connectable="0" parent="1">
          <mxGeometry x="480" y="110" width="100" height="50" as="geometry" />
        </mxCell>
        <mxCell id="-GhSaxj0Hqy-70uD3YuT-12" value="" style="rounded=0;whiteSpace=wrap;html=1;" vertex="1" parent="-GhSaxj0Hqy-70uD3YuT-11">
          <mxGeometry width="100" height="50" as="geometry" />
        </mxCell>
        <mxCell id="-GhSaxj0Hqy-70uD3YuT-13" value="" style="endArrow=none;html=1;entryX=0.5;entryY=0;entryDx=0;entryDy=0;exitX=0.5;exitY=1;exitDx=0;exitDy=0;" edge="1" parent="-GhSaxj0Hqy-70uD3YuT-11" source="-GhSaxj0Hqy-70uD3YuT-12" target="-GhSaxj0Hqy-70uD3YuT-12">
          <mxGeometry width="50" height="50" relative="1" as="geometry">
            <mxPoint x="-448.33333333333337" y="190" as="sourcePoint" />
            <mxPoint x="-406.6666666666667" y="148.33333333333334" as="targetPoint" />
          </mxGeometry>
        </mxCell>
        <mxCell id="-GhSaxj0Hqy-70uD3YuT-14" value="" style="group" vertex="1" connectable="0" parent="1">
          <mxGeometry x="740" y="370" width="100" height="50" as="geometry" />
        </mxCell>
        <mxCell id="-GhSaxj0Hqy-70uD3YuT-15" value="&lt;font style=&quot;font-size: 24px&quot;&gt;&lt;b&gt;7&amp;nbsp; &amp;nbsp; &amp;nbsp; &amp;nbsp;&lt;/b&gt;&lt;/font&gt;" style="rounded=0;whiteSpace=wrap;html=1;" vertex="1" parent="-GhSaxj0Hqy-70uD3YuT-14">
          <mxGeometry width="100" height="50" as="geometry" />
        </mxCell>
        <mxCell id="-GhSaxj0Hqy-70uD3YuT-16" value="" style="endArrow=none;html=1;entryX=0.5;entryY=0;entryDx=0;entryDy=0;exitX=0.5;exitY=1;exitDx=0;exitDy=0;" edge="1" parent="-GhSaxj0Hqy-70uD3YuT-14" source="-GhSaxj0Hqy-70uD3YuT-15" target="-GhSaxj0Hqy-70uD3YuT-15">
          <mxGeometry width="50" height="50" relative="1" as="geometry">
            <mxPoint x="-448.33333333333337" y="190" as="sourcePoint" />
            <mxPoint x="-406.6666666666667" y="148.33333333333334" as="targetPoint" />
          </mxGeometry>
        </mxCell>
        <mxCell id="-GhSaxj0Hqy-70uD3YuT-17" value="" style="group" vertex="1" connectable="0" parent="1">
          <mxGeometry x="650" y="538" width="100" height="50" as="geometry" />
        </mxCell>
        <mxCell id="-GhSaxj0Hqy-70uD3YuT-18" value="&lt;font style=&quot;font-size: 24px&quot;&gt;&lt;b&gt;&amp;nbsp; &amp;nbsp; &amp;nbsp; &amp;nbsp; 4&lt;/b&gt;&lt;/font&gt;" style="rounded=0;whiteSpace=wrap;html=1;" vertex="1" parent="-GhSaxj0Hqy-70uD3YuT-17">
          <mxGeometry width="100" height="50" as="geometry" />
        </mxCell>
        <mxCell id="-GhSaxj0Hqy-70uD3YuT-19" value="" style="endArrow=none;html=1;entryX=0.5;entryY=0;entryDx=0;entryDy=0;exitX=0.5;exitY=1;exitDx=0;exitDy=0;" edge="1" parent="-GhSaxj0Hqy-70uD3YuT-17" source="-GhSaxj0Hqy-70uD3YuT-18" target="-GhSaxj0Hqy-70uD3YuT-18">
          <mxGeometry width="50" height="50" relative="1" as="geometry">
            <mxPoint x="-448.33333333333337" y="190" as="sourcePoint" />
            <mxPoint x="-406.6666666666667" y="148.33333333333334" as="targetPoint" />
          </mxGeometry>
        </mxCell>
        <mxCell id="-GhSaxj0Hqy-70uD3YuT-20" value="" style="group" vertex="1" connectable="0" parent="1">
          <mxGeometry x="480" y="630" width="100" height="50" as="geometry" />
        </mxCell>
        <mxCell id="-GhSaxj0Hqy-70uD3YuT-21" value="&lt;span style=&quot;font-size: 24px&quot;&gt;&lt;b&gt;4&amp;nbsp; &amp;nbsp; &amp;nbsp; 5&lt;/b&gt;&lt;/span&gt;" style="rounded=0;whiteSpace=wrap;html=1;" vertex="1" parent="-GhSaxj0Hqy-70uD3YuT-20">
          <mxGeometry width="100" height="50" as="geometry" />
        </mxCell>
        <mxCell id="-GhSaxj0Hqy-70uD3YuT-22" value="" style="endArrow=none;html=1;entryX=0.5;entryY=0;entryDx=0;entryDy=0;exitX=0.5;exitY=1;exitDx=0;exitDy=0;" edge="1" parent="-GhSaxj0Hqy-70uD3YuT-20" source="-GhSaxj0Hqy-70uD3YuT-21" target="-GhSaxj0Hqy-70uD3YuT-21">
          <mxGeometry width="50" height="50" relative="1" as="geometry">
            <mxPoint x="-448.33333333333337" y="190" as="sourcePoint" />
            <mxPoint x="-406.6666666666667" y="148.33333333333334" as="targetPoint" />
          </mxGeometry>
        </mxCell>
        <mxCell id="-GhSaxj0Hqy-70uD3YuT-23" value="" style="group" vertex="1" connectable="0" parent="1">
          <mxGeometry x="310" y="540" width="100" height="50" as="geometry" />
        </mxCell>
        <mxCell id="-GhSaxj0Hqy-70uD3YuT-24" value="&lt;span style=&quot;font-size: 24px&quot;&gt;&lt;b&gt;5&amp;nbsp; &amp;nbsp; &amp;nbsp; &amp;nbsp;&amp;nbsp;&lt;/b&gt;&lt;/span&gt;" style="rounded=0;whiteSpace=wrap;html=1;" vertex="1" parent="-GhSaxj0Hqy-70uD3YuT-23">
          <mxGeometry width="100" height="50" as="geometry" />
        </mxCell>
        <mxCell id="-GhSaxj0Hqy-70uD3YuT-25" value="" style="endArrow=none;html=1;entryX=0.5;entryY=0;entryDx=0;entryDy=0;exitX=0.5;exitY=1;exitDx=0;exitDy=0;" edge="1" parent="-GhSaxj0Hqy-70uD3YuT-23" source="-GhSaxj0Hqy-70uD3YuT-24" target="-GhSaxj0Hqy-70uD3YuT-24">
          <mxGeometry width="50" height="50" relative="1" as="geometry">
            <mxPoint x="-448.33333333333337" y="190" as="sourcePoint" />
            <mxPoint x="-406.6666666666667" y="148.33333333333334" as="targetPoint" />
          </mxGeometry>
        </mxCell>
        <mxCell id="-GhSaxj0Hqy-70uD3YuT-26" value="" style="group" vertex="1" connectable="0" parent="1">
          <mxGeometry x="220" y="370" width="100" height="50" as="geometry" />
        </mxCell>
        <mxCell id="-GhSaxj0Hqy-70uD3YuT-27" value="&lt;span style=&quot;font-size: 24px&quot;&gt;&lt;b&gt;&amp;nbsp; &amp;nbsp; &amp;nbsp; &amp;nbsp; 6&lt;/b&gt;&lt;/span&gt;" style="rounded=0;whiteSpace=wrap;html=1;" vertex="1" parent="-GhSaxj0Hqy-70uD3YuT-26">
          <mxGeometry width="100" height="50" as="geometry" />
        </mxCell>
        <mxCell id="-GhSaxj0Hqy-70uD3YuT-28" value="" style="endArrow=none;html=1;entryX=0.5;entryY=0;entryDx=0;entryDy=0;exitX=0.5;exitY=1;exitDx=0;exitDy=0;" edge="1" parent="-GhSaxj0Hqy-70uD3YuT-26" source="-GhSaxj0Hqy-70uD3YuT-27" target="-GhSaxj0Hqy-70uD3YuT-27">
          <mxGeometry width="50" height="50" relative="1" as="geometry">
            <mxPoint x="-448.33333333333337" y="190" as="sourcePoint" />
            <mxPoint x="-406.6666666666667" y="148.33333333333334" as="targetPoint" />
          </mxGeometry>
        </mxCell>
        <mxCell id="-GhSaxj0Hqy-70uD3YuT-29" value="" style="group" vertex="1" connectable="0" parent="1">
          <mxGeometry x="310" y="200" width="100" height="50" as="geometry" />
        </mxCell>
        <mxCell id="-GhSaxj0Hqy-70uD3YuT-30" value="&lt;span style=&quot;font-size: 24px&quot;&gt;&lt;b&gt;6&amp;nbsp; &amp;nbsp; &amp;nbsp; &amp;nbsp;&lt;/b&gt;&lt;/span&gt;" style="rounded=0;whiteSpace=wrap;html=1;" vertex="1" parent="-GhSaxj0Hqy-70uD3YuT-29">
          <mxGeometry width="100" height="50" as="geometry" />
        </mxCell>
        <mxCell id="-GhSaxj0Hqy-70uD3YuT-31" value="" style="endArrow=none;html=1;entryX=0.5;entryY=0;entryDx=0;entryDy=0;exitX=0.5;exitY=1;exitDx=0;exitDy=0;" edge="1" parent="-GhSaxj0Hqy-70uD3YuT-29" source="-GhSaxj0Hqy-70uD3YuT-30" target="-GhSaxj0Hqy-70uD3YuT-30">
          <mxGeometry width="50" height="50" relative="1" as="geometry">
            <mxPoint x="-448.33333333333337" y="190" as="sourcePoint" />
            <mxPoint x="-406.6666666666667" y="148.33333333333334" as="targetPoint" />
          </mxGeometry>
        </mxCell>
        <mxCell id="-GhSaxj0Hqy-70uD3YuT-37" value="" style="shape=flexArrow;endArrow=classic;html=1;gradientColor=#7ea6e0;fillColor=#dae8fc;strokeColor=#6c8ebf;exitX=0.109;exitY=0.167;exitDx=0;exitDy=0;exitPerimeter=0;" edge="1" parent="1" source="45236fa5f4b8e91a-8">
          <mxGeometry width="50" height="50" relative="1" as="geometry">
            <mxPoint x="310" y="489.9999999999999" as="sourcePoint" />
            <mxPoint x="272" y="459.9999999999999" as="targetPoint" />
          </mxGeometry>
        </mxCell>
        <mxCell id="-GhSaxj0Hqy-70uD3YuT-40" value="&lt;font style=&quot;font-size: 18px&quot;&gt;&lt;b&gt;Finish!!&lt;/b&gt;&lt;/font&gt;" style="ellipse;shape=cloud;whiteSpace=wrap;html=1;" vertex="1" parent="1">
          <mxGeometry x="300" y="-10" width="120" height="80" as="geometry" />
        </mxCell>
      </root>
    </mxGraphModel>
  </diagram>
</mxfile>
